<svg width="800" height="400" xmlns="http://www.w3.org/2000/svg">
 <defs>
  <filter height="200%" width="200%" y="-50%" x="-50%" id="svg_10_blur">
   <feGaussianBlur stdDeviation="0" in="SourceGraphic"/>
  </filter>
 </defs>
 <g>
  <title>background</title>
  <rect fill="none" id="canvas_background" height="402" width="802" y="-1" x="-1"/>
 </g>
 <g>
  <title>Layer 1</title>
  <path filter="url(#svg_10_blur)" id="svg_1" d="m394.767,175.009c9.061,8.29 13.589,19.655 13.589,34.425c0,14.773 -4.418,26.484 -13.251,35.091c-8.83,8.608 -22.312,12.936 -40.436,12.936l-31.895,0l0,-94.558l32.983,0c16.944,-0.001 29.947,3.814 39.01,12.106zm-15.563,56.173c5.206,-4.894 7.812,-12.021 7.812,-21.357c0,-9.329 -2.606,-16.653 -7.812,-21.682c-5.213,-5.029 -13.205,-7.68 -23.992,-7.68l-12.175,0l0,58.086l13.809,0c9.693,0 17.145,-2.475 22.358,-7.367z" fill="#231F20"/>
  <path filter="url(#svg_10_blur)" id="svg_2" d="m483.554,257.46l-18.911,0l0,-9.044c-5.403,6.614 -11.698,9.92 -19.445,9.92c-7.745,0 -14.221,-2.24 -19.476,-6.725c-5.253,-4.485 -7.868,-10.467 -7.868,-17.944c0,-7.474 2.726,-12.957 8.161,-16.674c5.438,-3.715 12.875,-5.461 22.299,-5.461l14.979,0l0,-0.631c0,-7.791 -4,-11.688 -12.242,-11.688c-3.538,0 -7.21,0.702 -11.158,2.104c-3.938,1.406 -7.239,3.147 -9.959,5.232l-9.092,-13.185c9.604,-6.978 20.581,-10.466 32.903,-10.466c8.877,0 15.945,2.221 21.57,6.662c5.612,4.438 8.239,11.461 8.239,21.066l0,46.834zm-20.262,-28.071l0,-2.997l-12.67,0c-8.152,0 -12.229,2.268 -12.229,7.343c0,2.627 0.969,4.508 2.918,5.914c1.947,1.404 4.736,2.04 8.363,2.04c3.625,0 6.76,-1.146 9.53,-3.364c2.758,-2.221 4.088,-5.222 4.088,-8.936z" fill="#231F20"/>
  <path filter="url(#svg_10_blur)" id="svg_3" d="m537.311,202.075c-6.071,0 -10.881,2.148 -13.87,6.452c-2.988,4.305 -4.765,9.988 -4.765,17.054l0,31.879l-20.262,0l0,-72.945l20.262,0l0,9.261c2.702,-2.989 6.388,-5.527 10.326,-7.611c3.945,-2.085 8.585,-3.172 12.638,-3.264l0,19.175l-4.329,0l0,-0.001z" fill="#231F20"/>
  <path filter="url(#svg_10_blur)" id="svg_4" d="m574.061,199.374l0,32.188c0,2.81 0.828,5.008 2.278,6.59c1.446,1.586 3.223,2.381 5.214,2.381c3.81,0 7.05,-1.721 9.675,-5.167l7.628,14.271c-6.346,5.802 -13.021,8.698 -20.038,8.698c-7.026,0 -12.937,-2.309 -17.777,-6.931c-4.853,-4.62 -7.243,-10.917 -7.243,-18.894l0,-69.609l20.264,0l0,20.262l21.587,0l-11.14,16.21l-10.448,0l0,0.001z" fill="#231F20"/>
  <path filter="url(#svg_10_blur)" id="svg_5" d="m212.673,177.663l-7.089,-7.092l0.027,51.234l0.086,2.391c0.032,1.132 0.249,2.401 0.591,3.717l56.154,19.804l14.034,-6.218l0.011,-0.02l-63.814,-63.816z" fill="#00C4B3"/>
  <path filter="url(#svg_10_blur)" id="svg_6" d="m206.289,227.913l0.005,0c-0.005,-0.021 -0.013,-0.045 -0.024,-0.071c0.011,0.026 0.011,0.05 0.019,0.071zm70.198,13.566m-0.01,0.02l-14.034,6.218l-56.148,-19.804c1.071,4.118 3.448,8.749 6,11.276l18.321,18.221l40.757,0.052l5.116,-15.982l-0.012,0.019z" fill="#22D3C5"/>
  <path filter="url(#svg_10_blur)" id="svg_7" d="m205.774,170.571l-21.832,32.972c-1.812,1.937 -0.91,5.931 2.01,8.873l12.604,12.706l7.922,2.791c-0.343,-1.315 -0.559,-2.585 -0.591,-3.717l-0.087,-2.391l-0.026,-51.234l0,0z" fill="#0075C9"/>
  <path filter="url(#svg_10_blur)" id="svg_8" d="m262.905,171.23c-1.317,-0.334 -2.584,-0.545 -3.723,-0.577l-2.533,-0.093l-51.065,0.011l70.911,70.908l0.006,0l6.229,-14.05l-19.825,-56.199z" fill="#0075C9"/>
  <path filter="url(#svg_10_blur)" id="svg_9" d="m262.839,171.218c0.023,0.008 0.047,0.013 0.066,0.019l0,-0.006c-0.023,-0.005 -0.043,-0.005 -0.066,-0.013zm11.334,6.028c-2.578,-2.596 -7.142,-4.954 -11.268,-6.01l19.824,56.193l-6.229,14.05l-0.006,0l15.218,-4.862l0.032,-41.723l-17.571,-17.648z" fill="#00A8E1"/>
  <path id="svg_10" d="m260.124,163.357l-12.698,-12.61c-2.937,-2.907 -6.934,-3.815 -8.87,-2.006l-32.972,21.83l51.065,-0.011l2.533,0.093c1.139,0.032 2.405,0.243 3.723,0.577l-2.781,-7.873zm-54.54,7.214" fill="#00C4B3"/>
 </g>
</svg>